<svg xmlns="http://www.w3.org/2000/svg" xmlns:svg="http://www.w3.org/2000/svg" id="svg3013" width="100%" height="100%" version="1.1" viewBox="0 -256 1792 1792" style="transform:rotate(180deg)"><metadata id="metadata3023"/><g id="g3015" transform="matrix(1,0,0,-1,144.27119,1255.0508)"><path id="path3017" d="m 1472,576 q 0,-54 -37,-91 L 784,-166 q -39,-37 -91,-37 -51,0 -90,37 l -75,75 q -38,38 -38,91 0,53 38,91 L 821,384 H 117 Q 65,384 32.5,421.5 0,459 0,512 V 640 Q 0,693 32.5,730.5 65,768 117,768 h 704 l -293,294 q -38,36 -38,90 0,54 38,90 l 75,75 q 38,38 90,38 53,0 91,-38 l 651,-651 q 37,-35 37,-90 z" style="fill:#fff"/></g></svg>