<svg xmlns="http://www.w3.org/2000/svg" width="40" height="40"><path fill="#2c78ff" fill-rule="evenodd" d="M23.133 17.896c1.381-1.365 3.194-3.143 5.443-5.335 5.497-5.616 8.245-9.015 8.245-10.202 0-2.78-1.711-3.104-5.138-.966-2.99 1.857-6.75 5.205-11.273 10.048-.434.465-.868.942-1.303 1.431-3.35-4.019-6.147-6.83-8.397-8.426-2.914-2.087-4.373-1.74-4.373 1.044 0 .465 1.854 2.977 5.56 7.536l3.376 4.212a109.557 109.557 0 00-6.135 8.001C5.71 30.161 4 33.612 4 35.595c0 .051.126.71.383 1.971.435 1.238 1.073 1.854 1.918 1.854 1.71-2.394 3.538-4.957 5.482-7.69 3.349-4.689 5.779-7.922 7.285-9.7.306.413.537.721.69.93 0 .023 1.995 3.336 5.982 9.93 2.864 4.74 4.73 7.11 5.599 7.11.997 0 1.776-.32 2.34-.966.434-.513.65-1.081.65-1.7 0-1.648-1.456-4.83-4.371-9.544-2.043-3.3-4.32-6.597-6.824-9.894z"/></svg>